<?xml version="1.0" encoding="UTF-8"?>
<svg id="_圖層_2" data-name="圖層 2" xmlns="http://www.w3.org/2000/svg" viewBox="0 0 385.35 2146.36">
  <defs>
    <style>
      .cls-1 {
        fill: #150201;
      }
    </style>
  </defs>
  <g id="_圖層_1-2" data-name="圖層 1">
    <path class="cls-1" d="M111.02,959.39c-5.33-15.57-12.86-29.62-13.1-46.96-.99-73.06,79.91-64.62,117.96-99.11,7.86-7.12,3.82-13.04-.47-21.21-13.97-26.62-33.01-25.11-56.6-35.97-21.92-10.1-48.87-42.68-47.8-67.87.63-14.65,15.82-32.6,14.46-43.33-1.49-11.71-27.01-26.12-28.96-52.14-3.13-41.84,18.7-54.66,20.29-88.31,2.04-43.32-40.44-12.73-57.61-33.47-7.03-8.49-6.22-25.26.48-33.82,7.11-9.1,44.21-20.76,44.19-28.17-4.3-15.27-48.86-25.08-51.81-35.01-3.52-11.85,6.7-26.68,17.06-31.52,12.7-5.94,29.42-5.07,43.06-9.01,10.97-3.16,14.87-4.23,13.2-16.92-2.73-20.74-30.72-24.05-25.26-50.12,1.1-5.27,5.72-11.46,6.5-16.63,1.92-12.67-2.19-25.94.25-40.26,2.7-15.88,11.87-24.78,9.97-42.12-1.62-14.79-11.93-27.48-17.62-40.24-8.01-17.96-15.3-51.5-10.64-70.46,7.23-29.38,44.34-59.96,73.03-36.78,18.95,15.31-.1,68.76-1.45,91.02-.32,5.32-1.31,26.81,5.31,28.06,2.16,0,4.11-1.23,5.51-2.78,5.82-6.39,10.45-50.01,13.08-62.13,5.46-25.17,14.63-68.96,45.23-73.38,40.24-5.82,80.31,22.97,84.05,64.17,2.52,27.75-14.91,56.35-17.15,83.75-2.49,30.41,12.98,68.93-19.81,88.68-34.63,20.86-50.84-4.73-79.22-14.26-25.21-8.47-44.18,16.72-45.67,39.78-6.45,99.51,163.78,45.21,153.34,149.03-2.97,29.57-36.85,48.28-37.66,73.74-.89,28,28.93,29.37,31.75,50.8,3.6,27.33-20.63,35.08-42.7,38.04-18.7,2.51-31.43-1.65-49.02-2.7-25.55-1.53-36.28,7.66-41.7,32.03-4.92,22.13-9.85,58.47,15.99,68.9,29.69,11.99,58.24-3.08,85.29,7.28,6.69,2.56,18.95,8.86,22.81,14.8,8.74,13.43-2.17,26.48,6.82,39.47,10.26,14.82,31.86-5.68,45.44-7.59,22.76-3.2,33.3,10.32,38.61,30.57,8.55,32.58,11.28,93.74-38.74,87.92-18.54-2.16-23.34-21.8-33.92-31.16-16.76-14.82-27.51,14.84-28.81,27.72-3.58,35.45,10.19,38.22,21.3,65.13,7.08,17.16.06,77.02-7.32,94.95-5.05,12.28-10.39,10.45-6.29,27.16,7.84,31.98,24.96,45.17,9.76,83.36-5.13,12.9-22.72,23.28-21.9,35.82.75,11.43,21.57,7.18,31.09,16.65,24.39,24.27-1.41,61.22-10.16,85.43-9.55,26.44.5,40.13-.68,65.86-1.07,23.41-6.67,40.1-28.24,51.32-21.91,11.39-49.27,1.72-73.39,9.05-23.97,7.28-28.93,32.81-20.19,54.1,13.54,32.97,39.66,25.16,68.75,29.6,19.27,2.94,40.88,10.56,54.5,25.05,13.07,13.91,7.27,27.87,10.19,44.78,2.38,13.78,9.99,15.18,4.68,33.85-3.75,13.18-12.81,24.8-16.46,35.61-.97,2.88-3.16,13.39-2.84,15.93.64,5.04,13.18,9.25,17.26,13.23,15.4,15.03,10.16,45.67-9.99,54.83-24.16,10.98-78.73-1.87-107.68-2.22-12.02-.14-34.59.56-36.85,15.33-3.22,20.99,6.42,39.41,25.42,48.16,12.03,5.54,44.41,18.4,56.63,21.48,35.32,8.9,86.72-15.51,81.26,47.42-4.73,54.53-56.13,29.43-88.95,25.36-27.91-3.46-73.23-2.23-66.88,37.97,9.5,60.09,122.48,25.21,141.68,78.16,4.98,13.72-1.22,15.14-1.68,25.01-.17,3.64,2.29,6.62,2.7,10.12,1.85,15.89-5.16,23.54-7.91,36.68-2.8,13.36,9.47,29.18,11.73,43.42,6.03,38.17-27.29,57.12-60.01,63.08-43.76,7.97-84.95-18.12-132.45-.84-17.63,6.42-31.23,21.46-50.94,9.06-14.3-8.99-24.57-41.55-11.51-53.43,3.65-3.32,15.69-11.83,20.29-13.71,10.69-4.36,21.16-3.29,31.41-6.2,26.41-7.5,4.35-46.55-5.05-45.71-3.98.36-8.5,10.32-12.33,13.85-23.42,21.58-51.78-5.47-62.76-26.97-10.6-20.75-10.25-48.64,17.52-52.99,16.45-2.58,31.77,4.06,42.28,16.33,5.1,5.96,11.68,23.29,18.63,12.76,9.52-14.41-7.32-27.62-9.57-42.08-1.48-9.52.57-20.25-.5-29.88-1.08-9.67-6.14-20.35-7.06-30.55-2.42-26.99,2.2-59.18,23.1-78.11,16.49-14.93,38.96-18.45,18.77-43.34-15.51-19.13-35.79-29.89-36.23-59.37-.46-30.84,34.26-68.72,4.33-92.44-18.98-15.04-35.92-6.03-56.31-11.67-45.13-12.5-59.91-95.03-3.63-91.87,25.31,1.42,44.01,34.7,64.12-1.01,5.02-8.91,5.12-17.6,8.67-26.04,5.03-11.94,10.58-5.55,4.28-22.51-1.61-4.35-5.67-9.88-6.32-14.06-.66-4.24,1.46-6.72.24-11.62-3.39-13.66-23.24-33.8-27.86-50.31-11.39-40.68,16.32-56.54,19.65-90.88,1.89-19.56-5.82-38.25-5.74-56.23.07-14.41,5.41-38.82,9.22-53.12,3.86-14.51,13.59-49.24,19.58-61.42,5.7-11.59,28.24-22.65,27.72-31.45-.37-6.16-10.19-20.1-15.41-23.74-28.9-20.14-60.7-9.26-89.7-20.22-22.36-8.45-46.8-40.95-29.97-63.8,12.14-16.49,35.09-8.53,53.21-10.43,13.53-1.42,28.83-8.58,42.82-9.99ZM85.34,1574.59c3.18,15.63,20.48,16.98,24.72-.65,3.54-14.72-1.92-28.29-10.09-40.09-11.63-.71-8.2,11.69-9.51,19.04-1.39,7.83-7.09,12.02-5.13,21.7ZM127.24,1633.92c.42,1.43,2.77,4.05,4.09,4.65,6.11,2.75,30.35-8.38,38.97-10.16,21.79-4.49,44.14,3.33,63.36-3.17,18.14-6.13,26.75-26.55,7.38-37.13-21.89-11.95-72.14-4.04-94.36,6.55-16.97,8.09-11.69,8.36-15.79,24.71-1.29,5.13-5.6,7.96-3.65,14.55ZM144.72,930.78c.41,14.75,4.51,33.16,11.86,46.03,4.84,8.48,15.68,22.3,23.66,9.15,3.5-5.76,9.21-46.92,10.16-56.38,1.84-18.37.77-44.77-22.61-47.98-21.05-2.89-23.46,35.01-23.06,49.18ZM154.66,2051.94c3.17,17.43,55.07,18.09,68.53,17.03,6.1-.48,24.28-3.59,24.95-11.13,1.3-14.58-43.36-23.45-53.89-23.71-9.58-.24-42.25,3.19-39.59,17.81ZM157.76,1253.36c1.25,14.18,6.3,36.87,16.17,47.47,9.98,10.72,17.11,5.3,20.36-7.17,5.44-20.88-4.67-43.32-2.25-64.45,1.61-14.07,16.38-20.75,29.35-17.77,13.05,3,24.56,42.01,33.98,20.36,2.99-6.86,8.43-44.3,9-53.26,1.32-20.91-18.94-14.1-32.62-15.09-17.82-1.29-49.46-8.45-62.03,8.72-13.06,17.83-13.86,59.72-11.96,81.2ZM157.66,424.61c5.58,26.76,52.3,38.22,74.41,27.34,31.61-15.55-1.63-49.98-22.3-57.77-12.91-4.87-24.62-6.55-37.53-.62-12.31,5.65-17.31,17.98-14.58,31.05ZM202.51,985.84c2.15,12.77,19.27,38.52,34.76,31.11,19.17-9.17,25.43-54.94,22.09-73.51-2.25-12.5-21.19-53.62-37.57-37.43-13.72,13.56-22.42,61.27-19.28,79.83ZM218.46,119.31c.25,12.39,7.28,52.85,26.25,34.28,13.74-13.45,13.82-67.12,5.92-83.81-6.49-13.71-16.87-10.09-22.71,1.92-5.87,12.07-9.73,34.32-9.46,47.61Z"/>
  </g>
</svg>