<?xml version="1.0" encoding="UTF-8"?>
<svg id="_圖層_2" data-name="圖層 2" xmlns="http://www.w3.org/2000/svg" viewBox="0 0 107.88 71.67">
  <g id="_圖層_1-2" data-name="圖層 1">
    <g>
      <path d="M9.47,30.29l1.62,3.99c3.24-1.37,18.45-4.24,21.81-4.24h54.22v11.47h-54.22c-3.49,0-18.57-2.87-21.81-4.24l-1.62,3.86c3.24,1.37,18.7,4.74,20.94,7.35l14.33,13.96-9.22,9.22L0,36.02,35.65,0l9.1,8.97-14.21,14.09c-2.24,2.74-17.83,5.98-21.07,7.23Z"/>
      <polygon points="69.79 11.47 49.39 5.73 49.39 0 69.79 0 69.79 11.47"/>
      <rect x="69.79" width="17.34" height="11.47"/>
      <path d="M87.13,0v11.47c5.13,0,9.29,4.16,9.29,9.29s-4.16,9.29-9.29,9.29v11.47c11.46,0,20.75-9.29,20.75-20.75S98.59,0,87.13,0Z"/>
    </g>
  </g>
</svg>