<?xml version="1.0" encoding="UTF-8"?>
<svg id="_圖層_2" data-name="圖層 2" xmlns="http://www.w3.org/2000/svg" viewBox="0 0 754.55 754.55">
  <g id="_圖層_1-2" data-name="圖層 1">
    <g>
      <path d="M489.44,203.93c.07,13.58-.05,27.22,0,40.79,6.78.03,13.62-.06,20.4,0-.05,6.78.04,13.61,0,20.39h-40.79v20.39c-6.78-.03-13.61.05-20.39,0,.06-13.58-.05-27.21,0-40.79h20.39c.08-13.57-.1-27.21,0-40.79,6.78.05,13.61-.05,20.39,0Z"/>
      <path d="M672.98,203.93c-.1,20.36-.16,40.82,0,61.18-6.78.05-13.61-.04-20.39,0v40.79c-6.78.04-13.61-.05-20.39,0,.05,6.78-.04,13.61,0,20.39h20.39v20.39h20.39v20.39h-20.39v40.79h20.39v-20.39h20.39v40.79h40.79v20.39h20.39v101.97h-20.39v-20.39c-20.37.11-40.81-.15-61.18,0,.05-6.78-.04-13.61,0-20.39h40.79v-61.18h-40.79v20.39h-20.39v20.39h-20.39v-20.39c-6.78-.04-13.61.05-20.39,0-.05-6.78.03-13.62,0-20.4-13.58-.06-27.22.11-40.79,0-.05-6.78.04-13.62,0-20.4h-20.4c-.05-6.77-.01-13.61,0-20.39,13.57.1,27.21-.08,40.79,0v20.39c13.57.08,27.21-.1,40.79,0,.05,6.78-.04,13.61,0,20.39h20.39v-20.39c-6.78-.04-13.61.05-20.39,0-.21-27.17.16-54.4,0-81.57h-20.39c-.08-13.57.1-27.21,0-40.79,6.78-.05,13.61.05,20.39,0-.16-20.37.12-40.81,0-61.18h20.39v-40.79c6.78-.04,13.61.05,20.39,0Z"/>
      <path d="M387.47,203.93c13.57.1,27.21-.08,40.79,0v20.39c-13.57.08-27.21-.1-40.79,0-.05-6.78.03-13.61,0-20.39Z"/>
      <path d="M122.36,224.33c.05,6.78-.04,13.61,0,20.39h40.79c.02,13.58-.03,27.21,0,40.79-6.78-.01-13.61.03-20.39,0-.05-6.78.04-13.62,0-20.4-13.58-.07-27.22.11-40.79,0-.1-13.57-.1-27.22,0-40.79,6.78-.03,13.61.05,20.39,0Z"/>
      <path d="M183.54,224.33c6.78.11,13.62-.08,20.39,0v20.39h20.39v20.39c6.78.04,13.61-.05,20.39,0-.1,13.58.07,27.22,0,40.79-6.78.03-13.62-.06-20.4,0,0-6.78,0-13.62,0-20.4-6.78-.03-13.62.06-20.4,0-.05-6.78.04-13.61,0-20.39h-20.39c-.05-13.58.07-27.21,0-40.79Z"/>
      <path d="M122.36,203.93c6.78,0,13.61,0,20.39,0v20.39c-6.78.04-13.61-.05-20.39,0-.05-6.78,0-13.61,0-20.39Z"/>
      <path d="M672.98,203.93c.07-13.58-.05-27.21,0-40.79h40.79v20.39h40.79v20.39h-20.39v20.39h20.39v61.18h-40.79c0-6.78,0-13.61,0-20.39,6.78-.05,13.61.04,20.39,0v-20.39h-20.39v20.39c-6.78.05-13.61-.03-20.39,0,.1-13.57-.08-27.21,0-40.79h20.39v-20.39c-13.57.08-27.21-.1-40.79,0Z"/>
      <path d="M61.18,244.72c6.78.05,13.61-.04,20.39,0v20.39c6.78.04,13.61-.05,20.39,0,.05,6.78-.03,13.62,0,20.4,13.58.04,27.22-.08,40.79,0,.05,6.78-.03,13.61,0,20.39-13.58.07-27.21-.05-40.79,0v20.39h-20.39v20.39h20.39v20.39h-40.79v-40.79c-6.78-.08-13.62.11-20.39,0-.02-6.78.03-13.61,0-20.39,13.58-.04,27.21.03,40.79,0v-20.39h-20.39c-.03-13.58.04-27.21,0-40.79Z"/>
      <path d="M265.11,244.72c-.03,6.78.02,13.61,0,20.39-6.78-.03-13.61.05-20.39,0,.05-6.78-.03-13.62,0-20.4,6.78,0,13.62,0,20.4,0Z"/>
      <path d="M591.4,163.15c13.57.07,27.21-.05,40.79,0v61.18h-20.39v40.79c-6.78.08-13.62-.11-20.39,0-.11-6.78.08-13.62,0-20.39h-20.39v-20.39c-6.78-.08-13.62.11-20.39,0,.11-6.78-.08-13.62,0-20.39h61.18v-20.39h-20.39c-.04-6.78.05-13.61,0-20.39Z"/>
      <path d="M571.01,163.15c-.05,6.78.04,13.61,0,20.39h-20.39c-.04-6.78.05-13.61,0-20.39,6.78-.03,13.61,0,20.39,0Z"/>
      <path d="M530.22,163.15c.04,20.38-.03,40.81,0,61.19,6.78.07,13.62-.12,20.4,0-.11,6.78.08,13.62,0,20.4-13.58-.09-27.22.1-40.79,0,.1-13.58-.08-27.22,0-40.79-6.78-.03-13.62.06-20.4,0-.03-6.78,0-13.61,0-20.39,6.78-.11,13.62.08,20.39,0v-20.39c6.78-.04,13.61.05,20.39,0Z"/>
      <path d="M713.76,713.76v20.39h-20.39v-20.39c6.78,0,13.61-.05,20.39,0Z"/>
      <path d="M530.22,285.5c.05-6.78-.04-13.61,0-20.39h20.39v20.39c-6.78.04-13.61-.05-20.39,0-.1,13.57.03,27.21,0,40.79h-20.39v-20.39h-40.79c-1.02,0,0-18.3,0-20.39,20.36.1,40.82.16,61.18,0Z"/>
      <path d="M591.4,265.11c.11,6.78-.08,13.62,0,20.39h20.39c.04,6.78-.05,13.61,0,20.39-6.78.05-13.61-.04-20.39,0v40.79h-20.39v20.39h-20.39c-.02,13.58.03,27.21,0,40.79-6.78-.05-13.62.03-20.4,0,.06-27.17-.06-54.41,0-81.58h20.39v-20.39h20.39v-40.79c6.78-.08,13.62.11,20.39,0Z"/>
      <path d="M693.37,265.11c-.05,6.78.04,13.61,0,20.39h-20.39c-.04-6.78.05-13.61,0-20.39,6.78-.05,13.61.03,20.39,0Z"/>
      <path d="M20.39,305.9c-.11-6.78.08-13.62,0-20.39H0v-81.57h20.39v-20.39h61.18v-20.39h20.39v20.39c6.78.04,13.61-.05,20.39,0-.05,6.78,0,13.61,0,20.39h-20.4c-.03,6.78.06,13.61,0,20.39-13.57.07-27.22.1-40.79,0-.05-6.78.04-13.61,0-20.39h-20.39v20.39c6.78.04,13.61-.05,20.39,0,.05,6.78-.02,13.61,0,20.39-13.57-.1-27.21.08-40.79,0v20.39h20.39c.05,13.58-.07,27.21,0,40.79-6.78.02-13.61-.05-20.39,0Z"/>
      <path d="M203.93,285.5c.05,6.78-.03,13.61,0,20.39-13.58.07-27.21-.03-40.79,0,.05-6.78.01-13.61,0-20.39,13.57.03,27.21-.1,40.79,0Z"/>
      <path d="M448.65,142.75c.03,6.78-.03,13.61,0,20.39-6.78,0-13.62,0-20.4,0-.07-6.78.12-13.62,0-20.4,6.78.05,13.61-.03,20.39,0Z"/>
      <path d="M326.29,142.75c-.15,20.37.11,40.81,0,61.18h20.39v40.79h20.39v-20.39c6.78-.04,13.61.05,20.39,0,.05,6.78-.04,13.61,0,20.39h40.79v40.79c6.78.04,13.61-.05,20.39,0-.06,13.58.05,27.21,0,40.79h-20.39c-.04,6.78.05,13.61,0,20.39-13.57-.1-27.21.1-40.79,0,.05-6.78-.04-13.61,0-20.39h20.39v-20.39h-40.79v40.79c6.78.04,13.61-.05,20.39,0-.1,13.57.08,27.21,0,40.79h-40.79v40.79h20.39v-20.39h20.39v40.79h20.39v-81.57c6.78-.08,13.62.11,20.39,0,.05,6.78-.04,13.61,0,20.39h20.39v20.39h-20.39v20.39h40.79v40.79h-40.79v20.39h20.39v20.39h-40.79v-20.39h-20.39v-20.39h-20.39v-20.39h-40.79v20.39c6.78.05,13.61-.04,20.39,0v20.39h-20.39c0-6.78,0-13.61,0-20.39-13.57-.1-27.21.07-40.79,0,.03-6.78.03-13.61,0-20.39,6.78-.11,13.62.08,20.39,0v-40.79h20.39v-20.39h-20.39c0-6.78,0-13.61,0-20.39,6.78-.11,13.62.08,20.4,0,.07-6.78-.12-13.62,0-20.4,6.78-.11,13.62.08,20.39,0v-20.39h-20.39c-.08,6.78.11,13.62,0,20.39-6.78.11-13.62-.08-20.4,0v20.4c-6.77.11-13.61-.08-20.39,0v20.39h-20.39c-.08,6.78.11,13.62,0,20.39-6.78-.05-13.62-.05-20.39,0-.11-6.78.08-13.62,0-20.39h-40.79v81.57h-20.39v40.79c27.17-.15,54.41.21,81.57,0-.03,13.57-.03,27.21,0,40.79h20.39v40.79c-6.78.08-13.62-.11-20.39,0,.05,6.78-.04,13.61,0,20.39h20.39v20.39h-40.79v-40.79c6.78-.08,13.62.11,20.39,0-.1-13.57.03-27.21,0-40.79-6.78,0-13.61,0-20.39,0v20.39c-6.78.04-13.61-.05-20.39,0,0-13.58,0-27.21,0-40.79h-40.79v20.39h20.39c.04,6.78-.05,13.61,0,20.39-6.78.05-13.62-.04-20.4,0-.02,20.38.05,40.81,0,61.19-6.78-.11-13.62.08-20.39,0v-40.79h-40.79v-20.39h20.39v-20.39h-40.79v20.39c-20.37.07-40.81-.1-61.18,0-.05,6.78.04,13.61,0,20.39H0v-20.39c13.58-.05,27.21.07,40.79,0,.16-20.37-.12-40.81,0-61.19h-20.4c-.02,13.58.02,27.22,0,40.79H0v-40.79c6.78,0,13.61,0,20.39,0,.01-6.78.05-13.61,0-20.39H0v-20.39h20.39c.04,6.78-.05,13.61,0,20.39h20.39v-20.39h61.18v-20.39h40.79c0,6.78,0,13.61,0,20.39-6.78.11-13.62-.08-20.4,0v20.4c-6.77.11-13.61-.08-20.39,0v40.79h40.79v-20.39h-20.39c0-6.78,0-13.61,0-20.39,6.78-.11,13.62.08,20.4,0v-20.4c6.77-.11,13.61.08,20.39,0v-40.79h20.39v-20.39c-13.57-.08-27.21.1-40.79,0v-20.4c-6.78-.03-13.61.06-20.39,0,0-6.78,0-13.61,0-20.39h20.39c.04-6.78-.05-13.61,0-20.39,13.57.1,27.21-.08,40.79,0v-20.39c6.78-.08,13.62.11,20.39,0,.07,13.57-.05,27.21,0,40.79h40.79v-20.39h20.39c.05-27.17-.06-54.4,0-81.57,6.78.03,13.61-.04,20.39,0,.11,6.78-.08,13.62,0,20.39h20.39v20.39h40.79c.08-6.78-.11-13.62,0-20.39h20.39v-20.39h-20.39c-.08,6.78.11,13.62,0,20.39h-20.39v-20.39c-13.58-.05-27.21.07-40.79,0-.11-6.78.08-13.62,0-20.4-6.78,0-13.62,0-20.4,0,.03-6.78-.05-13.61,0-20.39,13.57.07,27.21-.1,40.79,0,.11,6.78-.08,13.62,0,20.39h20.39v-20.39c-6.78-.04-13.61.05-20.39,0-.11-6.78.08-13.62,0-20.39h-40.79c-.04,6.78.05,13.61,0,20.39-13.57-.07-27.21.05-40.79,0v-20.39h20.39c.03-13.58-.04-27.21,0-40.79,6.78.05,13.61-.04,20.39,0v20.39h20.39v-20.39h20.39c0-6.78,0-13.61,0-20.39,6.78.05,13.61,0,20.39,0ZM387.47,265.11v20.39h20.39v-20.39h-20.39ZM163.15,367.08v20.39h20.39v-20.39h-20.39ZM61.18,489.44v20.39h20.39v-20.39h-20.39Z"/>
      <path d="M20.39,305.9c.11,6.78-.08,13.62,0,20.4,6.78.07,13.62-.12,20.4,0,.07,20.37-.05,40.81,0,61.19,27.17.14,54.41-.21,81.58,0v20.4c6.78.03,13.61-.06,20.39,0,0,6.78,0,13.61,0,20.39H61.18v-20.39h-20.39v20.39h-20.39v20.39H0v-142.75c6.78-.04,13.61.05,20.39,0Z"/>
      <path d="M244.72,142.75c-.05,6.78.02,13.61,0,20.39-6.78-.05-13.62-.05-20.39,0-.05,6.78.04,13.61,0,20.39h-20.39v-20.39c6.78-.04,13.61.05,20.39,0,.05-6.78.01-13.61,0-20.39,6.78.05,13.62.05,20.39,0Z"/>
      <path d="M571.01,122.36c6.78,0,13.62,0,20.4,0,.07,13.58-.11,27.22,0,40.79-6.78-.04-13.61,0-20.39,0,.1-13.57-.1-27.21,0-40.79Z"/>
      <path d="M163.15,305.9c-.05,6.78.04,13.62,0,20.4-6.78.07-13.62-.12-20.4,0,.03-6.78.03-13.61,0-20.39,6.78-.03,13.61.02,20.39,0Z"/>
      <path d="M489.44,142.75c.05-6.78-.04-13.61,0-20.39h20.39v20.39c-6.78.04-13.61-.05-20.39,0-.1,13.57,0,27.21,0,40.79-6.78.11-13.62-.08-20.4,0-.03,6.78.06,13.62,0,20.4-6.78-.05-13.62.04-20.4,0-.04-13.58.08-27.22,0-40.79,6.78,0,13.62,0,20.4,0,.03-6.78-.06-13.62,0-20.4,6.78-.03,13.61.05,20.39,0Z"/>
      <path d="M224.33,305.9c0,6.78,0,13.62,0,20.4-6.78.07-13.62-.12-20.4,0-.04-6.78.03-13.61,0-20.39,6.78-.03,13.61.05,20.39,0Z"/>
      <path d="M407.86,122.36c6.78.05,13.62-.04,20.4,0,.07,6.78-.12,13.62,0,20.4-6.78-.05-13.62.04-20.4,0-.03-6.78.06-13.62,0-20.4Z"/>
      <path d="M387.47,122.36c.21,27.17-.13,54.4,0,81.57-6.78-.05-13.61.04-20.39,0v-20.39h-20.39c-.02-13.58.03-27.21,0-40.79,6.78-.05,13.62.04,20.4,0,.03-6.78-.06-13.62,0-20.4,6.78-.03,13.61-.03,20.39,0Z"/>
      <path d="M672.98,713.76v20.4c-6.78-.01-13.61,0-20.39,0,.11-6.78-.08-13.62,0-20.4,6.78-.03,13.62.06,20.4,0Z"/>
      <path d="M142.75,326.29c-.03,6.78.05,13.61,0,20.39-6.78-.05-13.61.04-20.39,0v-20.39c6.78-.08,13.62.11,20.39,0Z"/>
      <path d="M346.68,122.36c-.05,6.78-.01,13.61,0,20.39-6.78.05-13.61,0-20.39,0,.05-6.78-.03-13.62,0-20.4,6.78-.03,13.62.06,20.4,0Z"/>
      <path d="M448.65,713.76v20.4c-6.78.03-13.61-.06-20.39,0,.11-6.78-.08-13.62,0-20.4,6.78-.03,13.62.06,20.4,0Z"/>
      <path d="M428.26,346.68c6.78.05,13.61-.04,20.39,0v20.39c-6.78.08-13.62-.11-20.39,0-.05-6.78-.05-13.62,0-20.39Z"/>
      <path d="M326.29,713.76c-.05,6.78.04,13.61,0,20.39h-20.39c-.08-6.78.11-13.62,0-20.39,6.78-.05,13.61.05,20.39,0Z"/>
      <path d="M285.5,122.36c6.78.05,13.62-.04,20.4,0v20.4c-6.79-.05-13.62.04-20.41,0-.03-6.78.06-13.62,0-20.4Z"/>
      <path d="M265.11,122.36c-.11,6.78.08,13.62,0,20.4-6.78.03-13.62-.06-20.4,0,.05-6.78-.04-13.62,0-20.4,6.78-.03,13.62.06,20.4,0Z"/>
      <path d="M530.22,489.44c-6.78-.05-13.61.04-20.39,0v-20.39h-20.39v-61.18h-20.39v-20.39h40.79v61.18h20.39v-20.39c6.78,0,13.61,0,20.39,0,.05,6.78-.04,13.62,0,20.4,6.78.03,13.62-.06,20.4,0,.05,6.78-.03,13.61,0,20.39-13.58.07-27.22-.05-40.79,0,0,6.78,0,13.62,0,20.4Z"/>
      <path d="M224.33,20.39c-13.58-.07-27.21.05-40.79,0V0h40.79c.04,6.78-.05,13.61,0,20.39,6.78.04,13.61-.02,20.39,0-.1,13.57.08,27.21,0,40.79h40.79c.04-6.78-.05-13.61,0-20.39,6.78,0,13.61,0,20.39,0v-20.39c-6.78-.04-13.61.05-20.39,0,.05-6.78-.04-13.61,0-20.39h40.79v20.39c6.78.08,13.62-.11,20.39,0-.05,6.78.05,13.61,0,20.39-6.78.11-13.62-.08-20.4,0-.03,6.78.06,13.62,0,20.4-6.78.11-13.62-.08-20.39,0v20.39c6.78.04,13.61-.05,20.39,0-.05,6.78.04,13.62,0,20.4-13.58.06-27.22-.11-40.79,0-.05-6.78.04-13.62,0-20.4-27.17-.09-54.41.14-81.58,0,.05-6.78-.04-13.61,0-20.39h20.39c-.08-13.57.1-27.21,0-40.79Z"/>
      <path d="M244.72,407.86c.11,6.78-.08,13.62,0,20.39h20.39c.08-6.78-.11-13.62,0-20.39,6.78.05,13.62-.04,20.4,0,.04,13.58-.08,27.22,0,40.79-6.78.11-13.62-.08-20.4,0-.03,6.78.06,13.62,0,20.4-6.78-.05-13.61.04-20.39,0v-20.39h-20.39v-40.79c6.78-.04,13.61.05,20.39,0Z"/>
      <path d="M122.36,183.54c.05-6.78-.04-13.61,0-20.39h40.79v-40.79h20.39c.13,33.97-.17,68,0,101.97-6.78-.11-13.62.08-20.39,0v-40.79c-13.57-.08-27.21.1-40.79,0Z"/>
      <path d="M367.08,101.97c-.03,6.78.05,13.61,0,20.39-6.78.03-13.61-.05-20.39,0,.05-6.78-.04-13.62,0-20.4,6.78,0,13.62,0,20.4,0Z"/>
      <path d="M285.5,101.97c.05,6.78-.05,13.61,0,20.39-6.78-.05-13.62-.05-20.39,0,.11-6.78-.08-13.62,0-20.4,6.78-.03,13.62.06,20.4,0Z"/>
      <path d="M203.93,101.97c6.78.11,13.62-.08,20.4,0,0,13.58-.03,27.21,0,40.79-6.78-.05-13.62.04-20.4,0,0-13.58.03-27.21,0-40.79Z"/>
      <path d="M285.5,469.04c-.07,13.58.05,27.22,0,40.79-6.78.03-13.62-.06-20.4,0,.03-13.57-.1-27.21,0-40.79,6.78.05,13.61-.03,20.39,0Z"/>
      <path d="M489.44,81.57c33.96-.26,68,.19,101.97,0v20.39h-20.39c-.04,6.78.05,13.61,0,20.39-6.78,0-13.62,0-20.4,0,.09,13.58-.1,27.22,0,40.79-6.78.03-13.61-.05-20.39,0-.04-20.37.03-40.81,0-61.18h-40.79c-.04-6.78.05-13.61,0-20.39Z"/>
      <path d="M611.8,469.04c.21,27.17-.15,54.4,0,81.57h-20.39v-20.39c-6.78-.04-13.61.05-20.39,0-.05,6.78.04,13.62,0,20.4-13.58.07-27.22-.11-40.79,0-.11,6.78.08,13.62,0,20.39h-20.39v-20.39c6.78-.04,13.61.05,20.39,0,.11-6.78-.08-13.62,0-20.4,13.58.09,27.22-.1,40.79,0,.05-6.78-.03-13.61,0-20.39,6.78-.05,13.61.04,20.39,0v-20.39c-6.78-.04-13.61.05-20.39,0,0-6.78.03-13.61,0-20.39,13.57-.07,27.22-.1,40.79,0Z"/>
      <path d="M428.26,734.16c-.11,6.78.08,13.62,0,20.39h-20.39c-.08-6.78.11-13.62,0-20.39,6.78-.05,13.61.05,20.39,0Z"/>
      <path d="M571.01,489.44c0,6.78.03,13.61,0,20.39-13.58.1-27.22-.08-40.79,0,0-6.78,0-13.62,0-20.4,13.57.1,27.21-.1,40.79,0Z"/>
      <path d="M407.86,81.57c.1,13.57-.1,27.21,0,40.79-6.78-.05-13.61.03-20.39,0-.05-6.78.03-13.62,0-20.4-6.78,0-13.62,0-20.4,0,.03-6.78-.05-13.61,0-20.39,13.57.03,27.21.07,40.79,0Z"/>
      <path d="M244.72,20.39c.05-6.78-.04-13.61,0-20.39h20.39c.08,6.78-.11,13.62,0,20.39-6.78-.03-13.61.02-20.39,0Z"/>
      <path d="M469.04,591.4v-40.79h-20.39v-20.39h20.39v-20.39h20.39v81.57c-6.78-.05-13.62-.05-20.39,0Z"/>
      <path d="M346.68,20.39c.05-6.78-.04-13.61,0-20.39h40.79v20.39c13.57.08,27.21-.1,40.79,0-.16,20.36-.16,40.82,0,61.18-6.78.05-13.61-.03-20.39,0-.05-6.78.04-13.61,0-20.39h-40.79c-.04,6.78.05,13.61,0,20.39-13.57-.03-27.21.1-40.79,0,.05-6.78-.05-13.61,0-20.39,6.78-.11,13.62.08,20.4,0,.03-6.78-.06-13.62,0-20.4,6.78-.11,13.62.08,20.39,0v-20.39c-6.78-.08-13.62.11-20.39,0Z"/>
      <path d="M428.26,652.58c-.05,6.78-.05,13.62,0,20.39-6.78.05-13.62.05-20.39,0,.05-6.78-.03-13.61,0-20.39,6.78-.03,13.61-.03,20.39,0Z"/>
      <path d="M672.98,530.22c-.05,6.78.03,13.61,0,20.39-6.78-.01-13.61-.05-20.39,0,0-6.78,0-13.62,0-20.4,6.78-.03,13.62.06,20.4,0Z"/>
      <path d="M346.68,632.19c.1-13.57-.08-27.21,0-40.79h20.39v-20.39h-61.18v-20.39h81.57c.05,20.37-.07,40.81,0,61.18-6.78.05-13.61-.04-20.39,0v20.39c-6.78.04-13.61-.05-20.39,0Z"/>
      <path d="M652.58,550.62c0,6.78,0,13.62,0,20.4,6.78.07,13.62-.12,20.4,0,.07,13.58-.05,27.22,0,40.79,13.58.02,27.21-.05,40.79,0,.07,13.57-.05,27.21,0,40.79h20.39c-.08-13.57.1-27.21,0-40.79,6.78.05,13.61-.04,20.39,0v142.75h-20.39v-40.79c-6.78-.04-13.61.05-20.39,0v-20.39h-20.39v20.39c-6.78,0-13.61-.05-20.39,0,0-6.78,0-13.61,0-20.39h-61.18v20.39h20.39v20.39c6.78,0,13.61,0,20.39,0-.11,6.78.08,13.62,0,20.39h-101.97c0-13.58,0-27.21,0-40.79,6.78-.05,13.62-.05,20.39,0v20.39h20.39v-20.39c-6.78-.04-13.61.05-20.39,0,0-2.1-1.02-20.39,0-20.39h20.39v-20.39h-40.79v40.79c-6.78.05-13.61-.04-20.39,0v40.79h-20.39v-20.39h-20.39v-20.39c-13.57.08-27.21-.1-40.79,0,0-6.78,0-13.61,0-20.39h-20.39c-.04-6.78.05-13.61,0-20.39,6.78-.05,13.62.04,20.4,0,.03-6.78-.06-13.62,0-20.4,6.78.05,13.61-.04,20.39,0v20.39h20.39v-81.57c6.78.05,13.61-.04,20.39,0v20.39h20.39v20.39h40.79v-20.39h-20.39v-20.39h20.39v-20.39h61.18v-20.39c6.78-.04,13.61.05,20.39,0ZM652.58,591.4h-61.18v61.18h61.18v-61.18ZM672.98,632.19v20.39h20.39v-20.39h-20.39ZM509.83,672.98v20.39h20.39v-20.39h-20.39Z"/>
      <path d="M183.54,81.57c-6.78-.05-13.61.04-20.39,0v-40.79h20.39c.08,13.57-.1,27.21,0,40.79,6.78.05,13.61-.03,20.39,0-.05,6.78-.01,13.61,0,20.39-6.78-.11-13.62.08-20.4,0-.03-6.78.06-13.62,0-20.4Z"/>
      <path d="M672.98,550.62c13.58.02,27.21-.01,40.79,0,.04,13.58-.08,27.22,0,40.79-6.78-.11-13.62.08-20.39,0v-20.39c-6.78-.08-13.62.11-20.39,0-.04-6.78-.03-13.61,0-20.39Z"/>
      <path d="M224.33,571.01c0,13.58,0,27.21,0,40.79h-20.39c-.08-13.57.1-27.21,0-40.79,6.78-.05,13.61.05,20.39,0Z"/>
      <path d="M407.86,611.8c.07-13.57-.05-27.21,0-40.79h20.39v40.79c-6.78.04-13.61-.05-20.39,0-.07,13.58.07,27.21,0,40.79-6.78.03-13.61-.05-20.39,0-.1-13.57.05-27.21,0-40.79,6.78-.05,13.61.05,20.39,0Z"/>
      <path d="M428.26,20.39c.05-6.78-.04-13.61,0-20.39h81.57c.04,6.78-.05,13.61,0,20.39,13.57-.1,27.21.1,40.79,0,.05-6.78-.04-13.61,0-20.39h20.39v20.39c-6.78.04-13.61-.05-20.39,0-.05,6.78-.05,13.62,0,20.39h20.39v20.39h-20.39c-.04-6.78.05-13.61,0-20.39-2.1,0-20.39-1.02-20.39,0v20.39h-20.39c-.08-13.57.1-27.21,0-40.79-6.78.05-13.62-.03-20.4,0,.13,20.37-.15,40.81,0,61.19-6.78.05-13.62-.03-20.4,0-.1,20.37.16,40.81,0,61.19-6.78.03-13.61.03-20.39,0-.07-13.57.05-27.21,0-40.79h-20.39c-.04-6.78.05-13.61,0-20.39,6.78-.05,13.61.04,20.39,0v-20.39h20.39v-20.39h-20.39v-20.39c-6.78-.04-13.61.05-20.39,0Z"/>
      <path d="M387.47,652.58c.05,6.78-.03,13.62,0,20.4,6.78.03,13.62-.06,20.4,0-.05,6.78.04,13.61,0,20.39h-20.39v20.39h20.39c.08,6.78-.11,13.62,0,20.39-6.78.05-13.61-.04-20.39,0v20.39h-40.79v-20.39h20.39v-40.79h-20.39v20.39c-6.78.04-13.61-.05-20.39,0,.1-13.57-.1-27.21,0-40.79,13.57.1,27.21-.08,40.79,0v-20.39c6.78-.04,13.61.05,20.39,0Z"/>
      <path d="M469.04,591.4c0,13.58,0,27.21,0,40.79-6.78.07-13.62-.12-20.4,0,.04-13.58-.02-27.21,0-40.79,6.78-.03,13.62.06,20.4,0Z"/>
      <path d="M203.93,652.58c6.78.05,13.61-.04,20.39,0v20.39c6.78.04,13.61-.05,20.39,0,0-6.78,0-13.61,0-20.39h40.79v20.39c-13.57-.08-27.21.1-40.79,0v20.39h61.18c.08,6.78-.11,13.62,0,20.39-6.78.05-13.61-.04-20.39,0v40.79h-20.39v-20.39c0-1.02-18.3,0-20.39,0,0,6.78,0,13.61,0,20.39h-20.39v-20.39h20.39v-20.39h-40.79v-20.39h-20.39c-.04-6.78.05-13.61,0-20.39h20.4c0-6.78,0-13.61,0-20.39Z"/>
      <path d="M183.54,652.58c.03,6.78-.05,13.61,0,20.39-6.78,0-13.61,0-20.39,0v-20.39c6.78-.04,13.61.05,20.39,0Z"/>
      <path d="M713.76,591.4c6.78.11,13.62-.08,20.4,0,.03,6.78-.06,13.62,0,20.4-6.78-.05-13.61.02-20.39,0-.03-6.78.03-13.61,0-20.39Z"/>
      <path d="M448.65,632.19c-.02,6.78.05,13.61,0,20.39-6.78-.05-13.61.03-20.39,0,.05-6.78-.04-13.62,0-20.4,6.78-.07,13.62.12,20.4,0Z"/>
      <path d="M285.5,20.39c-.05,6.78.05,13.61,0,20.39h-20.4c-.07-6.77.12-13.61,0-20.39,6.78.03,13.61-.05,20.39,0Z"/>
      <path d="M346.68,632.19c-.05,6.78.04,13.61,0,20.39h-20.39c-.04,6.78.05,13.61,0,20.39-6.78-.05-13.61.04-20.39,0v-40.79c13.57-.08,27.21.1,40.79,0Z"/>
      <path d="M183.54,632.19c6.78.11,13.62-.08,20.4,0,0,6.78,0,13.62,0,20.4-6.78-.05-13.62-.05-20.39,0-.03-6.78-.02-13.61,0-20.39Z"/>
      <polygon points="713.76 305.9 713.76 346.68 693.37 346.68 693.37 326.29 672.98 326.29 672.98 305.9 713.76 305.9"/>
      <rect x="734.16" y="387.47" width="20.39" height="20.39"/>
      <path d="M489.44,346.68c-6.78-.11-13.62.08-20.39,0v-20.39h20.39c.08,6.78-.11,13.62,0,20.39,6.78.11,13.62-.08,20.39,0v20.39h-20.39c-.08-6.78.11-13.62,0-20.39Z"/>
      <rect x="326.29" y="509.83" width="20.39" height="20.39"/>
      <rect x="407.86" y="530.22" width="20.39" height="20.39"/>
      <rect x="305.9" y="591.4" width="20.39" height="20.39"/>
      <rect x="611.8" y="611.8" width="20.39" height="20.39"/>
      <g>
        <path d="M142.75,611.8v142.75H0v-142.75h142.75ZM122.36,632.19H20.39v101.97h101.97v-101.97Z"/>
        <rect x="40.79" y="652.58" width="61.18" height="61.18"/>
      </g>
      <g>
        <path d="M611.8,0h142.75v142.75h-142.75V0ZM734.16,20.39h-101.97v101.97h101.97V20.39Z"/>
        <rect x="652.58" y="40.79" width="61.18" height="61.18"/>
      </g>
      <g>
        <path d="M142.75,0v142.75H0V0h142.75ZM122.36,20.39H20.39v101.97h101.97V20.39Z"/>
        <rect x="40.79" y="40.79" width="61.18" height="61.18"/>
      </g>
    </g>
  </g>
</svg>